<mxfile host="app.diagrams.net" modified="2023-10-03T10:32:37.297Z" agent="Mozilla/5.0 (Macintosh; Intel Mac OS X 10_15_7) AppleWebKit/605.1.15 (KHTML, like Gecko) Version/17.0 Safari/605.1.15" etag="RALoLFr9vPTT9m9imV2-" version="22.0.0" type="device">
  <diagram name="Page-1" id="2YBvvXClWsGukQMizWep">
    <mxGraphModel dx="1891" dy="747" grid="1" gridSize="10" guides="1" tooltips="1" connect="1" arrows="1" fold="1" page="1" pageScale="1" pageWidth="850" pageHeight="1100" math="0" shadow="0">
      <root>
        <mxCell id="0" />
        <mxCell id="1" parent="0" />
        <mxCell id="aM9ryv3xv72pqoxQDRHE-1" value="&lt;b&gt;&lt;u&gt;:Staff&lt;/u&gt;&lt;/b&gt;" style="shape=umlLifeline;perimeter=lifelinePerimeter;whiteSpace=wrap;html=1;container=0;dropTarget=0;collapsible=0;recursiveResize=0;outlineConnect=0;portConstraint=eastwest;newEdgeStyle={&quot;edgeStyle&quot;:&quot;elbowEdgeStyle&quot;,&quot;elbow&quot;:&quot;vertical&quot;,&quot;curved&quot;:0,&quot;rounded&quot;:0};" parent="1" vertex="1">
          <mxGeometry x="40" y="40" width="100" height="920" as="geometry" />
        </mxCell>
        <mxCell id="aM9ryv3xv72pqoxQDRHE-2" value="" style="html=1;points=[];perimeter=orthogonalPerimeter;outlineConnect=0;targetShapes=umlLifeline;portConstraint=eastwest;newEdgeStyle={&quot;edgeStyle&quot;:&quot;elbowEdgeStyle&quot;,&quot;elbow&quot;:&quot;vertical&quot;,&quot;curved&quot;:0,&quot;rounded&quot;:0};" parent="aM9ryv3xv72pqoxQDRHE-1" vertex="1">
          <mxGeometry x="45" y="70" width="10" height="820" as="geometry" />
        </mxCell>
        <mxCell id="aM9ryv3xv72pqoxQDRHE-5" value="&lt;b&gt;&lt;u&gt;:System&lt;/u&gt;&lt;/b&gt;" style="shape=umlLifeline;perimeter=lifelinePerimeter;whiteSpace=wrap;html=1;container=0;dropTarget=0;collapsible=0;recursiveResize=0;outlineConnect=0;portConstraint=eastwest;newEdgeStyle={&quot;edgeStyle&quot;:&quot;elbowEdgeStyle&quot;,&quot;elbow&quot;:&quot;vertical&quot;,&quot;curved&quot;:0,&quot;rounded&quot;:0};" parent="1" vertex="1">
          <mxGeometry x="220" y="40" width="110" height="920" as="geometry" />
        </mxCell>
        <mxCell id="aM9ryv3xv72pqoxQDRHE-6" value="" style="html=1;points=[];perimeter=orthogonalPerimeter;outlineConnect=0;targetShapes=umlLifeline;portConstraint=eastwest;newEdgeStyle={&quot;edgeStyle&quot;:&quot;elbowEdgeStyle&quot;,&quot;elbow&quot;:&quot;vertical&quot;,&quot;curved&quot;:0,&quot;rounded&quot;:0};" parent="aM9ryv3xv72pqoxQDRHE-5" vertex="1">
          <mxGeometry x="50" y="80" width="10" height="810" as="geometry" />
        </mxCell>
        <mxCell id="e6tVENlUu9K6YGpC2aPl-17" value="" style="html=1;points=[[0,0,0,0,5],[0,1,0,0,-5],[1,0,0,0,5],[1,1,0,0,-5]];perimeter=orthogonalPerimeter;outlineConnect=0;targetShapes=umlLifeline;portConstraint=eastwest;newEdgeStyle={&quot;curved&quot;:0,&quot;rounded&quot;:0};" vertex="1" parent="aM9ryv3xv72pqoxQDRHE-5">
          <mxGeometry x="55" y="560" width="10" height="40" as="geometry" />
        </mxCell>
        <mxCell id="e6tVENlUu9K6YGpC2aPl-18" value="Load Data" style="html=1;align=left;spacingLeft=2;endArrow=block;rounded=0;edgeStyle=orthogonalEdgeStyle;curved=0;rounded=0;" edge="1" target="e6tVENlUu9K6YGpC2aPl-17" parent="aM9ryv3xv72pqoxQDRHE-5">
          <mxGeometry relative="1" as="geometry">
            <mxPoint x="60" y="540" as="sourcePoint" />
            <Array as="points">
              <mxPoint x="90" y="570" />
            </Array>
          </mxGeometry>
        </mxCell>
        <mxCell id="M8F95eb3gIpOHbqA3YIi-16" value="" style="html=1;points=[[0,0,0,0,5],[0,1,0,0,-5],[1,0,0,0,5],[1,1,0,0,-5]];perimeter=orthogonalPerimeter;outlineConnect=0;targetShapes=umlLifeline;portConstraint=eastwest;newEdgeStyle={&quot;curved&quot;:0,&quot;rounded&quot;:0};" parent="aM9ryv3xv72pqoxQDRHE-5" vertex="1">
          <mxGeometry x="55" y="250" width="10" height="40" as="geometry" />
        </mxCell>
        <mxCell id="e6tVENlUu9K6YGpC2aPl-23" value="" style="html=1;points=[[0,0,0,0,5],[0,1,0,0,-5],[1,0,0,0,5],[1,1,0,0,-5]];perimeter=orthogonalPerimeter;outlineConnect=0;targetShapes=umlLifeline;portConstraint=eastwest;newEdgeStyle={&quot;curved&quot;:0,&quot;rounded&quot;:0};" vertex="1" parent="aM9ryv3xv72pqoxQDRHE-5">
          <mxGeometry x="55" y="670" width="10" height="40" as="geometry" />
        </mxCell>
        <mxCell id="e6tVENlUu9K6YGpC2aPl-24" value="Calculate &lt;br&gt;Change &amp;amp; Load&amp;nbsp;" style="html=1;align=left;spacingLeft=2;endArrow=block;rounded=0;edgeStyle=orthogonalEdgeStyle;curved=0;rounded=0;" edge="1" target="e6tVENlUu9K6YGpC2aPl-23" parent="aM9ryv3xv72pqoxQDRHE-5">
          <mxGeometry relative="1" as="geometry">
            <mxPoint x="60" y="650" as="sourcePoint" />
            <Array as="points">
              <mxPoint x="90" y="680" />
            </Array>
          </mxGeometry>
        </mxCell>
        <mxCell id="aM9ryv3xv72pqoxQDRHE-7" value="Request Sales DashBoard&amp;nbsp;" style="html=1;verticalAlign=bottom;endArrow=block;edgeStyle=elbowEdgeStyle;elbow=vertical;curved=0;rounded=0;" parent="1" source="aM9ryv3xv72pqoxQDRHE-2" target="aM9ryv3xv72pqoxQDRHE-6" edge="1">
          <mxGeometry relative="1" as="geometry">
            <mxPoint x="195" y="130" as="sourcePoint" />
            <Array as="points">
              <mxPoint x="180" y="120" />
            </Array>
          </mxGeometry>
        </mxCell>
        <mxCell id="M8F95eb3gIpOHbqA3YIi-1" value="&lt;b&gt;&lt;u&gt;:Database&lt;/u&gt;&lt;/b&gt;" style="shape=umlLifeline;perimeter=lifelinePerimeter;whiteSpace=wrap;html=1;container=0;dropTarget=0;collapsible=0;recursiveResize=0;outlineConnect=0;portConstraint=eastwest;newEdgeStyle={&quot;edgeStyle&quot;:&quot;elbowEdgeStyle&quot;,&quot;elbow&quot;:&quot;vertical&quot;,&quot;curved&quot;:0,&quot;rounded&quot;:0};" parent="1" vertex="1">
          <mxGeometry x="400" y="40" width="100" height="920" as="geometry" />
        </mxCell>
        <mxCell id="M8F95eb3gIpOHbqA3YIi-2" value="" style="html=1;points=[];perimeter=orthogonalPerimeter;outlineConnect=0;targetShapes=umlLifeline;portConstraint=eastwest;newEdgeStyle={&quot;edgeStyle&quot;:&quot;elbowEdgeStyle&quot;,&quot;elbow&quot;:&quot;vertical&quot;,&quot;curved&quot;:0,&quot;rounded&quot;:0};" parent="M8F95eb3gIpOHbqA3YIi-1" vertex="1">
          <mxGeometry x="45" y="80" width="10" height="290" as="geometry" />
        </mxCell>
        <mxCell id="M8F95eb3gIpOHbqA3YIi-11" value="" style="html=1;points=[[0,0,0,0,5],[0,1,0,0,-5],[1,0,0,0,5],[1,1,0,0,-5]];perimeter=orthogonalPerimeter;outlineConnect=0;targetShapes=umlLifeline;portConstraint=eastwest;newEdgeStyle={&quot;curved&quot;:0,&quot;rounded&quot;:0};" parent="M8F95eb3gIpOHbqA3YIi-1" vertex="1">
          <mxGeometry x="50" y="163" width="10" height="30" as="geometry" />
        </mxCell>
        <mxCell id="M8F95eb3gIpOHbqA3YIi-12" value="Validate" style="html=1;align=left;spacingLeft=2;endArrow=block;rounded=0;edgeStyle=orthogonalEdgeStyle;curved=0;rounded=0;" parent="M8F95eb3gIpOHbqA3YIi-1" target="M8F95eb3gIpOHbqA3YIi-11" edge="1">
          <mxGeometry relative="1" as="geometry">
            <mxPoint x="55" y="150" as="sourcePoint" />
            <Array as="points">
              <mxPoint x="85" y="180" />
            </Array>
          </mxGeometry>
        </mxCell>
        <mxCell id="e6tVENlUu9K6YGpC2aPl-11" value="" style="html=1;points=[[0,0,0,0,5],[0,1,0,0,-5],[1,0,0,0,5],[1,1,0,0,-5]];perimeter=orthogonalPerimeter;outlineConnect=0;targetShapes=umlLifeline;portConstraint=eastwest;newEdgeStyle={&quot;curved&quot;:0,&quot;rounded&quot;:0};" vertex="1" parent="M8F95eb3gIpOHbqA3YIi-1">
          <mxGeometry x="45" y="450" width="10" height="80" as="geometry" />
        </mxCell>
        <mxCell id="e6tVENlUu9K6YGpC2aPl-12" value="" style="html=1;points=[[0,0,0,0,5],[0,1,0,0,-5],[1,0,0,0,5],[1,1,0,0,-5]];perimeter=orthogonalPerimeter;outlineConnect=0;targetShapes=umlLifeline;portConstraint=eastwest;newEdgeStyle={&quot;curved&quot;:0,&quot;rounded&quot;:0};" vertex="1" parent="M8F95eb3gIpOHbqA3YIi-1">
          <mxGeometry x="50" y="470" width="10" height="40" as="geometry" />
        </mxCell>
        <mxCell id="e6tVENlUu9K6YGpC2aPl-13" value="Execute query" style="html=1;align=left;spacingLeft=2;endArrow=block;rounded=0;edgeStyle=orthogonalEdgeStyle;curved=0;rounded=0;" edge="1" target="e6tVENlUu9K6YGpC2aPl-12" parent="M8F95eb3gIpOHbqA3YIi-1">
          <mxGeometry relative="1" as="geometry">
            <mxPoint x="55" y="450" as="sourcePoint" />
            <Array as="points">
              <mxPoint x="85" y="480" />
            </Array>
          </mxGeometry>
        </mxCell>
        <mxCell id="e6tVENlUu9K6YGpC2aPl-26" value="" style="html=1;points=[[0,0,0,0,5],[0,1,0,0,-5],[1,0,0,0,5],[1,1,0,0,-5]];perimeter=orthogonalPerimeter;outlineConnect=0;targetShapes=umlLifeline;portConstraint=eastwest;newEdgeStyle={&quot;curved&quot;:0,&quot;rounded&quot;:0};" vertex="1" parent="M8F95eb3gIpOHbqA3YIi-1">
          <mxGeometry x="45" y="770" width="10" height="80" as="geometry" />
        </mxCell>
        <mxCell id="e6tVENlUu9K6YGpC2aPl-28" value="" style="html=1;points=[[0,0,0,0,5],[0,1,0,0,-5],[1,0,0,0,5],[1,1,0,0,-5]];perimeter=orthogonalPerimeter;outlineConnect=0;targetShapes=umlLifeline;portConstraint=eastwest;newEdgeStyle={&quot;curved&quot;:0,&quot;rounded&quot;:0};" vertex="1" parent="M8F95eb3gIpOHbqA3YIi-1">
          <mxGeometry x="50" y="790" width="10" height="40" as="geometry" />
        </mxCell>
        <mxCell id="e6tVENlUu9K6YGpC2aPl-29" value="Execute query" style="html=1;align=left;spacingLeft=2;endArrow=block;rounded=0;edgeStyle=orthogonalEdgeStyle;curved=0;rounded=0;" edge="1" target="e6tVENlUu9K6YGpC2aPl-28" parent="M8F95eb3gIpOHbqA3YIi-1">
          <mxGeometry relative="1" as="geometry">
            <mxPoint x="55" y="770" as="sourcePoint" />
            <Array as="points">
              <mxPoint x="85" y="800" />
            </Array>
          </mxGeometry>
        </mxCell>
        <mxCell id="M8F95eb3gIpOHbqA3YIi-7" value="" style="html=1;verticalAlign=bottom;endArrow=open;dashed=1;endSize=8;edgeStyle=elbowEdgeStyle;elbow=vertical;curved=0;rounded=0;" parent="1" edge="1">
          <mxGeometry relative="1" as="geometry">
            <mxPoint x="95" y="154" as="targetPoint" />
            <Array as="points">
              <mxPoint x="190" y="154" />
            </Array>
            <mxPoint x="265" y="154" as="sourcePoint" />
            <mxPoint as="offset" />
          </mxGeometry>
        </mxCell>
        <mxCell id="M8F95eb3gIpOHbqA3YIi-8" value="Insert&amp;nbsp;Read ID" style="html=1;verticalAlign=bottom;endArrow=block;elbow=vertical;rounded=0;" parent="1" edge="1" target="aM9ryv3xv72pqoxQDRHE-6">
          <mxGeometry relative="1" as="geometry">
            <mxPoint x="95" y="189.5" as="sourcePoint" />
            <mxPoint x="265" y="189.5" as="targetPoint" />
          </mxGeometry>
        </mxCell>
        <mxCell id="M8F95eb3gIpOHbqA3YIi-10" value="Request Related Data" style="html=1;verticalAlign=bottom;endArrow=block;edgeStyle=elbowEdgeStyle;elbow=vertical;curved=0;rounded=0;" parent="1" source="aM9ryv3xv72pqoxQDRHE-6" target="M8F95eb3gIpOHbqA3YIi-2" edge="1">
          <mxGeometry relative="1" as="geometry">
            <mxPoint x="280" y="189.5" as="sourcePoint" />
            <Array as="points">
              <mxPoint x="365" y="189.5" />
            </Array>
            <mxPoint x="430" y="190" as="targetPoint" />
          </mxGeometry>
        </mxCell>
        <mxCell id="M8F95eb3gIpOHbqA3YIi-13" value="Alt" style="shape=umlFrame;whiteSpace=wrap;html=1;pointerEvents=0;" parent="1" vertex="1">
          <mxGeometry x="10" y="241" width="480" height="209" as="geometry" />
        </mxCell>
        <mxCell id="M8F95eb3gIpOHbqA3YIi-14" value="Return Data" style="html=1;verticalAlign=bottom;endArrow=open;dashed=1;endSize=8;elbow=vertical;rounded=0;" parent="1" edge="1" target="aM9ryv3xv72pqoxQDRHE-6">
          <mxGeometry relative="1" as="geometry">
            <mxPoint x="350" y="260" as="targetPoint" />
            <mxPoint x="445" y="261" as="sourcePoint" />
          </mxGeometry>
        </mxCell>
        <mxCell id="M8F95eb3gIpOHbqA3YIi-17" value="Load Data" style="html=1;align=left;spacingLeft=2;endArrow=block;rounded=0;edgeStyle=orthogonalEdgeStyle;curved=0;rounded=0;" parent="1" target="M8F95eb3gIpOHbqA3YIi-16" edge="1">
          <mxGeometry x="-0.0069" relative="1" as="geometry">
            <mxPoint x="280" y="270" as="sourcePoint" />
            <Array as="points">
              <mxPoint x="305" y="300" />
            </Array>
            <mxPoint as="offset" />
          </mxGeometry>
        </mxCell>
        <mxCell id="M8F95eb3gIpOHbqA3YIi-18" value="" style="html=1;verticalAlign=bottom;endArrow=open;dashed=1;endSize=8;edgeStyle=elbowEdgeStyle;elbow=vertical;curved=0;rounded=0;" parent="1" source="aM9ryv3xv72pqoxQDRHE-6" target="aM9ryv3xv72pqoxQDRHE-2" edge="1">
          <mxGeometry relative="1" as="geometry">
            <mxPoint x="110" y="340" as="targetPoint" />
            <Array as="points">
              <mxPoint x="185" y="340" />
            </Array>
            <mxPoint x="260" y="340" as="sourcePoint" />
            <mxPoint as="offset" />
          </mxGeometry>
        </mxCell>
        <mxCell id="M8F95eb3gIpOHbqA3YIi-19" value="" style="line;strokeWidth=1;fillColor=none;align=left;verticalAlign=middle;spacingTop=-1;spacingLeft=3;spacingRight=3;rotatable=0;labelPosition=right;points=[];portConstraint=eastwest;strokeColor=inherit;" parent="1" vertex="1">
          <mxGeometry x="10" y="360" width="480" height="8" as="geometry" />
        </mxCell>
        <mxCell id="M8F95eb3gIpOHbqA3YIi-20" value="send error message" style="html=1;verticalAlign=bottom;endArrow=open;dashed=1;endSize=8;edgeStyle=elbowEdgeStyle;elbow=vertical;curved=0;rounded=0;" parent="1" edge="1" target="aM9ryv3xv72pqoxQDRHE-6">
          <mxGeometry x="-0.0018" relative="1" as="geometry">
            <mxPoint x="290" y="410" as="targetPoint" />
            <Array as="points">
              <mxPoint x="370" y="409.99999999999994" />
            </Array>
            <mxPoint x="445" y="410" as="sourcePoint" />
            <mxPoint as="offset" />
          </mxGeometry>
        </mxCell>
        <mxCell id="M8F95eb3gIpOHbqA3YIi-21" value="" style="html=1;verticalAlign=bottom;endArrow=open;dashed=1;endSize=8;edgeStyle=elbowEdgeStyle;elbow=vertical;curved=0;rounded=0;" parent="1" edge="1" source="aM9ryv3xv72pqoxQDRHE-6">
          <mxGeometry relative="1" as="geometry">
            <mxPoint x="95" y="422.0000000000001" as="targetPoint" />
            <Array as="points">
              <mxPoint x="170" y="422" />
            </Array>
            <mxPoint x="265" y="422.0000000000001" as="sourcePoint" />
            <mxPoint as="offset" />
          </mxGeometry>
        </mxCell>
        <mxCell id="M8F95eb3gIpOHbqA3YIi-22" value="loop" style="shape=umlFrame;whiteSpace=wrap;html=1;pointerEvents=0;" parent="1" vertex="1">
          <mxGeometry x="20" y="382" width="450" height="60" as="geometry" />
        </mxCell>
        <mxCell id="M8F95eb3gIpOHbqA3YIi-23" value="&lt;span style=&quot;font-weight: normal;&quot;&gt;[while id is valid]&lt;/span&gt;" style="text;align=center;fontStyle=1;verticalAlign=middle;spacingLeft=3;spacingRight=3;strokeColor=none;rotatable=0;points=[[0,0.5],[1,0.5]];portConstraint=eastwest;html=1;" parent="1" vertex="1">
          <mxGeometry x="101" y="385" width="80" height="26" as="geometry" />
        </mxCell>
        <mxCell id="M8F95eb3gIpOHbqA3YIi-24" value="&lt;span style=&quot;font-weight: normal;&quot;&gt;[invalid]&lt;/span&gt;" style="text;align=center;fontStyle=1;verticalAlign=middle;spacingLeft=3;spacingRight=3;strokeColor=none;rotatable=0;points=[[0,0.5],[1,0.5]];portConstraint=eastwest;html=1;" parent="1" vertex="1">
          <mxGeometry x="80" y="360" width="80" height="26" as="geometry" />
        </mxCell>
        <mxCell id="M8F95eb3gIpOHbqA3YIi-25" value="&lt;span style=&quot;font-weight: normal;&quot;&gt;[valid]&lt;/span&gt;" style="text;align=center;fontStyle=1;verticalAlign=middle;spacingLeft=3;spacingRight=3;strokeColor=none;rotatable=0;points=[[0,0.5],[1,0.5]];portConstraint=eastwest;html=1;" parent="1" vertex="1">
          <mxGeometry x="80" y="241" width="80" height="26" as="geometry" />
        </mxCell>
        <mxCell id="e6tVENlUu9K6YGpC2aPl-1" value="Enter Quantity &amp;amp; &lt;br&gt;Click add button" style="html=1;verticalAlign=bottom;endArrow=block;elbow=vertical;rounded=0;" edge="1" parent="1" target="aM9ryv3xv72pqoxQDRHE-6">
          <mxGeometry relative="1" as="geometry">
            <mxPoint x="95" y="483" as="sourcePoint" />
            <mxPoint x="265" y="483" as="targetPoint" />
          </mxGeometry>
        </mxCell>
        <mxCell id="e6tVENlUu9K6YGpC2aPl-7" value="Send Data" style="html=1;verticalAlign=bottom;endArrow=block;elbow=vertical;rounded=0;" edge="1" parent="1">
          <mxGeometry relative="1" as="geometry">
            <mxPoint x="280" y="491" as="sourcePoint" />
            <mxPoint x="445" y="491" as="targetPoint" />
            <mxPoint as="offset" />
          </mxGeometry>
        </mxCell>
        <mxCell id="e6tVENlUu9K6YGpC2aPl-15" value="Send Data" style="html=1;verticalAlign=bottom;endArrow=open;dashed=1;endSize=8;edgeStyle=elbowEdgeStyle;elbow=vertical;curved=0;rounded=0;" edge="1" parent="1" target="aM9ryv3xv72pqoxQDRHE-6">
          <mxGeometry relative="1" as="geometry">
            <mxPoint x="290" y="570" as="targetPoint" />
            <Array as="points">
              <mxPoint x="365" y="570" />
            </Array>
            <mxPoint x="445" y="570" as="sourcePoint" />
          </mxGeometry>
        </mxCell>
        <mxCell id="e6tVENlUu9K6YGpC2aPl-19" value="loop" style="shape=umlFrame;whiteSpace=wrap;html=1;pointerEvents=0;" vertex="1" parent="1">
          <mxGeometry x="-10" y="170" width="600" height="480" as="geometry" />
        </mxCell>
        <mxCell id="e6tVENlUu9K6YGpC2aPl-21" value="&lt;span style=&quot;font-weight: normal;&quot;&gt;[For each item]&lt;/span&gt;" style="text;align=center;fontStyle=1;verticalAlign=middle;spacingLeft=3;spacingRight=3;strokeColor=none;rotatable=0;points=[[0,0.5],[1,0.5]];portConstraint=eastwest;html=1;" vertex="1" parent="1">
          <mxGeometry x="-4" y="201" width="80" height="26" as="geometry" />
        </mxCell>
        <mxCell id="e6tVENlUu9K6YGpC2aPl-22" value="Enter settled &amp;nbsp;amount&amp;nbsp;" style="html=1;verticalAlign=bottom;endArrow=block;elbow=vertical;rounded=0;" edge="1" parent="1">
          <mxGeometry relative="1" as="geometry">
            <mxPoint x="95" y="690.0000000000001" as="sourcePoint" />
            <mxPoint x="270" y="690.0000000000001" as="targetPoint" />
          </mxGeometry>
        </mxCell>
        <mxCell id="e6tVENlUu9K6YGpC2aPl-25" value="Click Pay &amp;nbsp;Buttton" style="html=1;verticalAlign=bottom;endArrow=block;elbow=vertical;rounded=0;" edge="1" parent="1">
          <mxGeometry relative="1" as="geometry">
            <mxPoint x="95" y="780" as="sourcePoint" />
            <mxPoint x="270" y="780" as="targetPoint" />
          </mxGeometry>
        </mxCell>
        <mxCell id="e6tVENlUu9K6YGpC2aPl-27" value="Send Data" style="html=1;verticalAlign=bottom;endArrow=block;elbow=vertical;rounded=0;" edge="1" parent="1">
          <mxGeometry relative="1" as="geometry">
            <mxPoint x="270" y="810" as="sourcePoint" />
            <mxPoint x="445" y="810" as="targetPoint" />
          </mxGeometry>
        </mxCell>
        <mxCell id="e6tVENlUu9K6YGpC2aPl-30" value="send Successful message" style="html=1;verticalAlign=bottom;endArrow=open;dashed=1;endSize=8;edgeStyle=elbowEdgeStyle;elbow=horizontal;curved=0;rounded=0;" edge="1" parent="1">
          <mxGeometry x="-0.0018" relative="1" as="geometry">
            <mxPoint x="280" y="890" as="targetPoint" />
            <Array as="points">
              <mxPoint x="365" y="890" />
            </Array>
            <mxPoint x="445" y="890" as="sourcePoint" />
            <mxPoint as="offset" />
          </mxGeometry>
        </mxCell>
        <mxCell id="e6tVENlUu9K6YGpC2aPl-31" value="" style="html=1;verticalAlign=bottom;endArrow=open;dashed=1;endSize=8;edgeStyle=elbowEdgeStyle;elbow=horizontal;curved=0;rounded=0;" edge="1" parent="1">
          <mxGeometry x="-0.0018" relative="1" as="geometry">
            <mxPoint x="95" y="905" as="targetPoint" />
            <Array as="points">
              <mxPoint x="188" y="905" />
            </Array>
            <mxPoint x="268" y="905" as="sourcePoint" />
            <mxPoint as="offset" />
          </mxGeometry>
        </mxCell>
      </root>
    </mxGraphModel>
  </diagram>
</mxfile>
